# xmcd CD database file
#
# Track frame offsets:
#	150
#	14928
#	34834
#	51207
#	66642
#	85601
#	100635
#	120155
#	139037
#	164347
#	181797
#	195533
#
# Disc length: 2908 seconds
#
# Revision: 0
# Processed by: cddbd v1.5.2PL0 Copyright (c) Steve Scherf et al.
# Submitted via: CDex 1.51
#
DISCID=9c0b5a0c
DTITLE=Jacqui Naylor - East/West Live album 1 Birdland
DYEAR=2005
DGENRE=Jazz
TTITLE0=thank you baby
TTITLE1=once in a lifetime
TTITLE2=we'll fly
TTITLE3=for what it's worth
TTITLE4=wil youstill love me tomorrow
TTITLE5=don't let the bastard get you down
TTITLE6=my funny valentine
TTITLE7=the wind
TTITLE8=but not for me
TTITLE9=julie's song
TTITLE10=it'll be fine
TTITLE11=me and mr. jones
EXTD=YEAR: 2005
EXTT0=
EXTT1=
EXTT2=
EXTT3=
EXTT4=
EXTT5=
EXTT6=
EXTT7=
EXTT8=
EXTT9=
EXTT10=
EXTT11=
PLAYORDER=
